<svg xmlns="http://www.w3.org/2000/svg" version="1.1" width="143.7mm" height="83.7mm" viewBox = " 0 0 509.17364699999996 296.575047" >
<!-- Front--> 
<g transform="translate(22.5000185, 22.5000185) " > 
<polygon style="stroke:#000000; fill:none; stroke-width:0.90000074" points="0, 0 35.433099999999996, 0 35.433099999999996, 10.62993 70.86619999999999, 10.62993 70.86619999999999, 0 92.12606, 0 92.12606, 10.62993 127.55915999999999, 10.62993 127.55915999999999, 0 162.99226, 0 162.99226, 22.677184 152.36233, 22.677184 152.36233, 45.354368 162.99226, 45.354368 162.99226, 68.031552 152.36233, 68.031552 152.36233, 90.708736 162.99226, 90.708736 162.99226, 113.38592 127.55915999999999, 113.38592 127.55915999999999, 102.75599 92.12606, 102.75599 92.12606, 113.38592 70.86619999999999, 113.38592 70.86619999999999, 102.75599 35.433099999999996, 102.75599 35.433099999999996, 113.38592 0, 113.38592 0, 90.708736 10.62993, 90.708736 10.62993, 68.031552 0, 68.031552 0, 45.354368 10.62993, 45.354368 10.62993, 22.677184 0, 22.677184 "/> 
</g>
<!-- Back--> 
<g transform="translate(185.4922785, 22.5000185) " > 
<polygon style="stroke:#000000; fill:none; stroke-width:0.90000074" points="0, 0 35.433099999999996, 0 35.433099999999996, 10.62993 70.86619999999999, 10.62993 70.86619999999999, 0 92.12606, 0 92.12606, 10.62993 127.55915999999999, 10.62993 127.55915999999999, 0 162.99226, 0 162.99226, 22.677184 152.36233, 22.677184 152.36233, 45.354368 162.99226, 45.354368 162.99226, 68.031552 152.36233, 68.031552 152.36233, 90.708736 162.99226, 90.708736 162.99226, 113.38592 127.55915999999999, 113.38592 127.55915999999999, 102.75599 92.12606, 102.75599 92.12606, 113.38592 70.86619999999999, 113.38592 70.86619999999999, 102.75599 35.433099999999996, 102.75599 35.433099999999996, 113.38592 0, 113.38592 0, 90.708736 10.62993, 90.708736 10.62993, 68.031552 0, 68.031552 0, 45.354368 10.62993, 45.354368 10.62993, 22.677184 0, 22.677184 "/> 
</g>
<!-- Left--> 
<g transform="translate(348.4845385, 22.5000185) " > 
<polygon style="stroke:#000000; fill:none; stroke-width:0.90000074" points="10.62993, 0 29.2323075, 0 29.2323075, 10.62993 58.464615, 10.62993 58.464615, 0 79.724475, 0 79.724475, 10.62993 108.9567825, 10.62993 108.9567825, 0 127.55915999999999, 0 127.55915999999999, 22.677184 138.18909, 22.677184 138.18909, 45.354368 127.55915999999999, 45.354368 127.55915999999999, 68.031552 138.18909, 68.031552 138.18909, 90.708736 127.55915999999999, 90.708736 127.55915999999999, 113.38592 108.9567825, 113.38592 108.9567825, 102.75599 79.724475, 102.75599 79.724475, 113.38592 58.464615, 113.38592 58.464615, 102.75599 29.2323075, 102.75599 29.2323075, 113.38592 10.62993, 113.38592 10.62993, 90.708736 0, 90.708736 0, 68.031552 10.62993, 68.031552 10.62993, 45.354368 0, 45.354368 0, 22.677184 10.62993, 22.677184 "/> 
</g>
<!-- Right--> 
<g transform="translate(348.4845385, 135.8859385) " > 
<polygon style="stroke:#000000; fill:none; stroke-width:0.90000074" points="10.62993, 0 29.2323075, 0 29.2323075, 10.62993 58.464615, 10.62993 58.464615, 0 79.724475, 0 79.724475, 10.62993 108.9567825, 10.62993 108.9567825, 0 127.55915999999999, 0 127.55915999999999, 22.677184 138.18909, 22.677184 138.18909, 45.354368 127.55915999999999, 45.354368 127.55915999999999, 68.031552 138.18909, 68.031552 138.18909, 90.708736 127.55915999999999, 90.708736 127.55915999999999, 113.38592 108.9567825, 113.38592 108.9567825, 102.75599 79.724475, 102.75599 79.724475, 113.38592 58.464615, 113.38592 58.464615, 102.75599 29.2323075, 102.75599 29.2323075, 113.38592 10.62993, 113.38592 10.62993, 90.708736 0, 90.708736 0, 68.031552 10.62993, 68.031552 10.62993, 45.354368 0, 45.354368 0, 22.677184 10.62993, 22.677184 "/> 
</g>
<!-- Top--> 
<g transform="translate(22.5000185, 135.8859385) " > 
<polygon style="stroke:#000000; fill:none; stroke-width:0.90000074" points="10.62993, 10.62993 35.433099999999996, 10.62993 35.433099999999996, 0 70.86619999999999, 0 70.86619999999999, 10.62993 92.12606, 10.62993 92.12606, 0 127.55915999999999, 0 127.55915999999999, 10.62993 152.36233, 10.62993 152.36233, 29.2323075 162.99226, 29.2323075 162.99226, 58.464615 152.36233, 58.464615 152.36233, 79.724475 162.99226, 79.724475 162.99226, 108.9567825 152.36233, 108.9567825 152.36233, 127.55915999999999 127.55915999999999, 127.55915999999999 127.55915999999999, 138.18909 92.12606, 138.18909 92.12606, 127.55915999999999 70.86619999999999, 127.55915999999999 70.86619999999999, 138.18909 35.433099999999996, 138.18909 35.433099999999996, 127.55915999999999 10.62993, 127.55915999999999 10.62993, 108.9567825 0, 108.9567825 0, 79.724475 10.62993, 79.724475 10.62993, 58.464615 0, 58.464615 0, 29.2323075 10.62993, 29.2323075 "/> 
</g>
<!-- Bottom--> 
<g transform="translate(185.4922785, 135.8859385) " > 
<polygon style="stroke:#000000; fill:none; stroke-width:0.90000074" points="10.62993, 10.62993 35.433099999999996, 10.62993 35.433099999999996, 0 70.86619999999999, 0 70.86619999999999, 10.62993 92.12606, 10.62993 92.12606, 0 127.55915999999999, 0 127.55915999999999, 10.62993 152.36233, 10.62993 152.36233, 29.2323075 162.99226, 29.2323075 162.99226, 58.464615 152.36233, 58.464615 152.36233, 79.724475 162.99226, 79.724475 162.99226, 108.9567825 152.36233, 108.9567825 152.36233, 127.55915999999999 127.55915999999999, 127.55915999999999 127.55915999999999, 138.18909 92.12606, 138.18909 92.12606, 127.55915999999999 70.86619999999999, 127.55915999999999 70.86619999999999, 138.18909 35.433099999999996, 138.18909 35.433099999999996, 127.55915999999999 10.62993, 127.55915999999999 10.62993, 108.9567825 0, 108.9567825 0, 79.724475 10.62993, 79.724475 10.62993, 58.464615 0, 58.464615 0, 29.2323075 10.62993, 29.2323075 "/> 
</g></svg>